<svg width="64" height="64" viewBox="0 0 64 64" fill="none" xmlns="http://www.w3.org/2000/svg">
<path fill-rule="evenodd" clip-rule="evenodd" d="M20 18.6666V17.3333C20 14.1507 21.2643 11.0985 23.5147 8.84803C25.7652 6.59759 28.8174 5.33331 32 5.33331C35.1826 5.33331 38.2348 6.59759 40.4853 8.84803C42.7357 11.0985 44 14.1507 44 17.3333V18.6666H50.6667C52.1387 18.6666 53.3333 19.864 53.3333 21.352V53.3546C53.3333 56.288 50.9467 58.6666 48.016 58.6666H15.984C14.5747 58.6666 13.223 58.1072 12.226 57.1111C11.2289 56.1151 10.6681 54.764 10.6667 53.3546V21.3546C10.6667 19.8666 11.8533 18.6666 13.3333 18.6666H20ZM24 18.6666H40V17.3333C40 15.2116 39.1572 13.1767 37.6569 11.6765C36.1566 10.1762 34.1217 9.33331 32 9.33331C29.8783 9.33331 27.8434 10.1762 26.3432 11.6765C24.8429 13.1767 24 15.2116 24 17.3333V18.6666ZM20 18.6666V29.3333H24V18.6666H20ZM40 18.6666V29.3333H44V18.6666H40Z" fill="black"/>
</svg>
